<svg width="39" height="40" viewBox="0 0 39 40" fill="none" xmlns="http://www.w3.org/2000/svg">
<path fill-rule="evenodd" clip-rule="evenodd" d="M7.5048 0.809572C5.98576 -0.534861 2.8735 0.105294 1.34736 0.532871C0.780701 0.691632 0.341233 1.12683 0.205577 1.69946C-0.0162886 2.63599 -0.205526 4.07651 0.463937 4.8289C1.04656 5.4837 2.1652 5.48877 3.14456 5.32763C4.20111 5.1538 5.33332 5.60013 5.76855 6.57843L11.0252 18.3941L11.7418 20.1838C11.9279 20.6485 11.9533 21.1813 11.6665 21.5915C11.321 22.0859 10.8831 22.4479 10.5223 22.9159C9.35807 24.2251 8.91759 25.0944 8.55221 26.7429C8.52394 26.8704 8.50951 27.002 8.50912 27.1327C8.50248 29.3416 8.87392 29.4308 10.2208 29.8538C10.4207 29.9166 10.629 29.9497 10.8385 29.9497H35.1668C35.9993 29.9497 36.6741 29.2749 36.6741 28.4425C36.6741 27.61 35.9993 26.9352 35.1669 26.9352H13.5929C12.9305 26.9352 12.2396 26.555 12.4249 25.9191C12.6406 25.1784 13.3737 24.2015 14.6085 22.878C14.8921 22.574 15.2681 22.372 15.6766 22.2948L32.7356 19.0706C33.3191 18.9603 33.8235 18.5964 34.1121 18.0774L38.5986 10.0097C38.6566 9.90548 38.7051 9.79741 38.7384 9.68291C38.8884 9.16847 39.2702 7.61709 38.6858 6.83855C38.2768 6.29383 37.2912 5.98943 36.8701 5.88039C36.7401 5.84673 36.6064 5.83372 36.4722 5.83372H11.4849C10.6125 5.83372 9.84247 5.2682 9.5285 4.45422C9.05279 3.22094 8.28984 1.50438 7.5048 0.809572ZM31.8304 8.84824C33.3406 8.84824 34.306 10.4579 33.5947 11.7901L31.609 15.5096C31.3148 16.0608 30.7798 16.4428 30.1629 16.5422L17.0713 18.6517C16.1754 18.796 15.2946 18.3192 14.9258 17.4901L12.3326 11.6612C11.7441 10.3385 12.7122 8.84824 14.1599 8.84824H31.8304Z" fill="#C6CD78"/>
<path d="M16.5573 35.9807C16.5573 38.2005 14.756 40 12.534 40C10.312 40 8.51064 38.2005 8.51064 35.9807C8.51064 33.7608 10.312 31.9613 12.534 31.9613C14.756 31.9613 16.5573 33.7608 16.5573 35.9807Z" fill="#C6CD78"/>
<path d="M36.6741 35.9787C36.6741 38.1985 34.8728 39.998 32.6507 39.998C30.4287 39.998 28.6274 38.1985 28.6274 35.9787C28.6274 33.7589 30.4287 31.9594 32.6507 31.9594C34.8728 31.9594 36.6741 33.7589 36.6741 35.9787Z" fill="#C6CD78"/>
</svg>
