<svg width="40" height="41" viewBox="0 0 40 41" fill="none" xmlns="http://www.w3.org/2000/svg">
<path fill-rule="evenodd" clip-rule="evenodd" d="M28 15.5732C28 19.9915 24.4183 23.5732 20 23.5732C15.5817 23.5732 12 19.9915 12 15.5732C12 11.155 15.5817 7.57324 20 7.57324C24.4183 7.57324 28 11.155 28 15.5732ZM25 15.5732C25 18.3347 22.7614 20.5732 20 20.5732C17.2386 20.5732 15 18.3347 15 15.5732C15 12.8118 17.2386 10.5732 20 10.5732C22.7614 10.5732 25 12.8118 25 15.5732Z" fill="#C6CD78"/>
<path fill-rule="evenodd" clip-rule="evenodd" d="M6.66676 35.4807C10.2051 38.6476 14.8777 40.5732 20 40.5732C25.1223 40.5732 29.7949 38.6476 33.3332 35.4807C34.0806 34.8118 34.7774 34.0875 35.4171 33.3143C38.2797 29.8543 40 25.4147 40 20.5732C40 9.52755 31.0457 0.573242 20 0.573242C8.9543 0.573242 0 9.52755 0 20.5732C0 25.4147 1.72027 29.8543 4.5829 33.3143C5.22262 34.0875 5.91939 34.8118 6.66676 35.4807ZM8.87132 33.4248C11.8534 36.0093 15.744 37.5732 20 37.5732C24.256 37.5732 28.1466 36.0093 31.1287 33.4248C28.066 31.0125 24.2011 29.5732 20 29.5732C15.7989 29.5732 11.934 31.0125 8.87132 33.4248ZM6.77692 31.2583C10.387 28.3287 14.9885 26.5732 20 26.5732C25.0115 26.5732 29.613 28.3287 33.2231 31.2583C35.5852 28.3387 37 24.6212 37 20.5732C37 11.1844 29.3888 3.57324 20 3.57324C10.6112 3.57324 3 11.1844 3 20.5732C3 24.6212 4.41481 28.3387 6.77692 31.2583Z" fill="#C6CD78"/>
</svg>
