<svg width="37" height="41" viewBox="0 0 37 41" fill="none" xmlns="http://www.w3.org/2000/svg">
<path d="M21.5 28.7711C21.5 28.6511 21.5715 28.5426 21.6818 28.4953L28.0818 25.7525C28.2798 25.6676 28.5 25.8128 28.5 26.0282V27.3754C28.5 27.4954 28.4285 27.6039 28.3182 27.6512L21.9182 30.394C21.7202 30.4789 21.5 30.3337 21.5 30.1183V28.7711Z" fill="#C6CD78"/>
<path d="M21.6759 32.4933C21.5688 32.542 21.5 32.6488 21.5 32.7664V34.1073C21.5 34.3255 21.7255 34.4707 21.9241 34.3805L32.3241 29.6532C32.4312 29.6045 32.5 29.4977 32.5 29.3801V28.0391C32.5 27.821 32.2745 27.6757 32.0759 27.766L21.6759 32.4933Z" fill="#C6CD78"/>
<path fill-rule="evenodd" clip-rule="evenodd" d="M18.6154 0.650165C18.8682 0.544838 19.1531 0.547787 19.4036 0.658324L36.4036 8.15832C36.7661 8.31824 37 8.67706 37 9.07324V31.5732C37 31.9606 36.7763 32.3131 36.4258 32.4781L19.4258 40.4781C19.1629 40.6018 18.8593 40.605 18.5939 40.4871L0.593864 32.4871C0.232735 32.3266 0 31.9684 0 31.5732V9.07324C0 8.66954 0.242737 8.30544 0.615387 8.15017L18.6154 0.650165ZM2 10.612V30.9234L18 38.0345V17.7172L14.5 16.1262V25.0732C14.5 25.5004 14.2286 25.8805 13.8245 26.0191C13.4205 26.1578 12.9729 26.0244 12.7106 25.6872L9.71396 21.8343L7.44721 22.9677C7.13722 23.1227 6.76909 23.1061 6.47427 22.9239C6.17945 22.7417 6 22.4198 6 22.0732V12.3898L2 10.612ZM8 12.3758V20.4552L9.55279 19.6788C9.97914 19.4656 10.4967 19.583 10.7894 19.9593L12.5 22.1587V14.5732C12.5 14.1927 12.716 13.8451 13.0573 13.6766L27.6381 6.47715L24.0123 4.87756L8 12.3758ZM21.584 3.80626L18.9887 2.66127L3.52888 9.10287L6.98916 10.6408L21.584 3.80626ZM30.0238 7.52968L15.8344 14.5359L18.9927 15.9715L33.5891 9.1026L30.0238 7.52968ZM35 10.649L20 17.7078V37.9975L35 30.9386V10.649Z" fill="#C6CD78"/>
</svg>
