<svg width="22" height="22" viewBox="0 0 22 22" fill="none" xmlns="http://www.w3.org/2000/svg">
<path d="M6.65736 4.4538C6.69492 4.45125 6.73249 4.4465 6.76979 4.43952C6.8 4.43386 6.83004 4.42675 6.85976 4.41818C7.10312 4.34796 7.3539 4.30365 7.60795 4.2864C8.09957 4.25302 8.59277 4.32172 9.05655 4.48819C9.52032 4.65466 9.94464 4.91529 10.3028 5.25369C10.4879 5.42856 10.6533 5.62225 10.7964 5.8312C10.8139 5.85672 10.8325 5.88131 10.8523 5.90488C10.8766 5.93399 10.9026 5.96155 10.93 5.98741C11.1621 6.20674 11.4948 6.30301 11.793 6.17643C12.1549 6.02284 12.328 5.60147 12.1245 5.26505C12.0756 5.18409 12.0243 5.10456 11.9709 5.02655C11.9596 5.01002 11.9482 4.99356 11.9366 4.97718C11.7444 4.70375 11.5248 4.44958 11.2805 4.21884C10.7796 3.74555 10.1862 3.38103 9.53752 3.14821C8.88888 2.91539 8.19909 2.8193 7.51151 2.86598C7.17629 2.88874 6.84513 2.9452 6.52292 3.03398C6.50361 3.0393 6.48433 3.04474 6.46509 3.05029C6.37423 3.07651 6.28411 3.1053 6.19484 3.13665C5.82391 3.2669 5.68947 3.70213 5.87109 4.05081C6.02077 4.33818 6.33871 4.47544 6.65736 4.4538Z" fill="white" fill-opacity="0.7"/>
<path fill-rule="evenodd" clip-rule="evenodd" d="M7.8499 15.6998C9.71198 15.6998 11.4226 15.0514 12.7684 13.9682C12.7906 14.0524 12.8243 14.1347 12.8699 14.2127L14.9862 17.8407L18.5543 21.4088C19.3426 22.1971 20.6206 22.1971 21.4088 21.4088C22.1971 20.6206 22.1971 19.3426 21.4088 18.5543L17.8407 14.9862L14.2127 12.8699C14.1347 12.8243 14.0524 12.7906 13.9682 12.7684C15.0514 11.4226 15.6998 9.71198 15.6998 7.8499C15.6998 3.51452 12.1853 0 7.8499 0C3.51452 0 0 3.51452 0 7.8499C0 12.1853 3.51452 15.6998 7.8499 15.6998ZM7.8499 14.2725C11.397 14.2725 14.2725 11.397 14.2725 7.8499C14.2725 4.30277 11.397 1.42725 7.8499 1.42725C4.30277 1.42725 1.42725 4.30277 1.42725 7.8499C1.42725 11.397 4.30277 14.2725 7.8499 14.2725Z" fill="white" fill-opacity="0.7"/>
</svg>
