<svg width="24" height="24" viewBox="0 0 24 24" fill="none" xmlns="http://www.w3.org/2000/svg">
<path d="M7.26257 4.8587C7.30355 4.85591 7.34453 4.85072 7.38523 4.84311C7.41818 4.83694 7.45095 4.82919 7.48337 4.81983C7.74885 4.74323 8.02244 4.69489 8.29958 4.67607C8.83589 4.63966 9.37393 4.71461 9.87987 4.89621C10.3858 5.07781 10.8487 5.36213 11.2394 5.7313C11.4413 5.92207 11.6217 6.13336 11.7779 6.36131C11.797 6.38915 11.8173 6.41597 11.8388 6.44169C11.8654 6.47344 11.8937 6.50351 11.9236 6.53172C12.1768 6.77099 12.5397 6.87602 12.8651 6.73792C13.2599 6.57037 13.4487 6.11069 13.2268 5.74369C13.1734 5.65537 13.1175 5.56861 13.0592 5.48351C13.0468 5.46548 13.0343 5.44753 13.0218 5.42965C12.8121 5.13137 12.5725 4.85409 12.306 4.60237C11.7596 4.08606 11.1122 3.6884 10.4046 3.43441C9.69696 3.18043 8.94446 3.0756 8.19438 3.12653C7.82868 3.15136 7.46741 3.21295 7.11591 3.3098C7.09485 3.3156 7.07382 3.32153 7.05282 3.32759C6.9537 3.35619 6.85539 3.3876 6.75801 3.4218C6.35335 3.56389 6.2067 4.03869 6.40482 4.41906C6.56811 4.73256 6.91496 4.88229 7.26257 4.8587Z" fill="#C6CD78"/>
<path fill-rule="evenodd" clip-rule="evenodd" d="M8.56352 17.1271C10.5949 17.1271 12.4611 16.4198 13.9292 15.238C13.9534 15.3299 13.9902 15.4196 14.0398 15.5048L16.3485 19.4626L20.2411 23.3551C21.101 24.215 22.4952 24.215 23.3551 23.3551C24.215 22.4952 24.215 21.101 23.3551 20.2411L19.4626 16.3485L15.5048 14.0399C15.4196 13.9902 15.3299 13.9534 15.238 13.9292C16.4198 12.4611 17.127 10.5949 17.127 8.56353C17.127 3.83402 13.293 0 8.56352 0C3.83402 0 0 3.83402 0 8.56353C0 13.293 3.83402 17.1271 8.56352 17.1271ZM8.56352 15.57C12.4331 15.57 15.57 12.4331 15.57 8.56353C15.57 4.69393 12.4331 1.557 8.56352 1.557C4.69393 1.557 1.557 4.69393 1.557 8.56353C1.557 12.4331 4.69393 15.57 8.56352 15.57Z" fill="#C6CD78"/>
</svg>
